<svg data-v-423bf9ae="" xmlns="http://www.w3.org/2000/svg" viewBox="0 0 655.5359851428234 180" class="iconAbove"><!----><!----><!----><g data-v-423bf9ae="" id="988696ef-b522-4054-8b0b-4dd292e60698" fill="black" transform="matrix(4.79999963378909,0,0,4.79999963378909,-4.703997900238619,43.56026874496406)"><path d="M7 16.72L7 16.72Q7.74 16.72 8.71 16.93L8.71 16.93L8.71 16.93Q9.69 17.14 10.14 17.37L10.14 17.37L10.14 20.09L9.60 20.09L9.60 20.09Q8.32 17.89 6.19 17.89L6.19 17.89L6.19 17.89Q5.26 17.89 4.50 18.43L4.50 18.43L4.50 18.43Q3.74 18.97 3.30 19.93L3.30 19.93L3.30 19.93Q2.87 20.89 2.87 22.08L2.87 22.08L2.87 22.08Q2.87 23.45 3.30 24.58L3.30 24.58L3.30 24.58Q3.72 25.72 4.60 26.40L4.60 26.40L4.60 26.40Q5.47 27.09 6.76 27.09L6.76 27.09L6.76 27.09Q7.95 27.09 10.18 25.30L10.18 25.30L10.60 25.97L8.02 27.97L8.02 27.97Q7.50 28.15 7.02 28.22L7.02 28.22L7.02 28.22Q6.54 28.28 5.98 28.28L5.98 28.28L5.98 28.28Q4.51 28.28 3.37 27.57L3.37 27.57L3.37 27.57Q2.24 26.85 1.61 25.60L1.61 25.60L1.61 25.60Q0.98 24.35 0.98 22.75L0.98 22.75L0.98 22.75Q0.98 21.11 1.93 19.72L1.93 19.72L1.93 19.72Q2.88 18.33 4.30 17.52L4.30 17.52L4.30 17.52Q5.71 16.72 7 16.72L7 16.72ZM16.67 20.43L16.67 20.43Q17.60 20.43 18.33 20.91L18.33 20.91L18.33 20.91Q19.07 21.39 19.48 22.22L19.48 22.22L19.48 22.22Q19.89 23.04 19.89 24.04L19.89 24.04L19.89 24.04Q19.89 25.12 19.24 26.06L19.24 26.06L19.24 26.06Q18.58 27.01 17.59 27.57L17.59 27.57L17.59 27.57Q16.60 28.14 15.68 28.14L15.68 28.14L15.68 28.14Q14.76 28.14 14.02 27.66L14.02 27.66L14.02 27.66Q13.29 27.17 12.87 26.35L12.87 26.35L12.87 26.35Q12.46 25.52 12.46 24.53L12.46 24.53L12.46 24.53Q12.46 23.45 13.12 22.50L13.12 22.50L13.12 22.50Q13.78 21.56 14.76 20.99L14.76 20.99L14.76 20.99Q15.75 20.43 16.67 20.43L16.67 20.43ZM15.86 21.60L15.86 21.60Q14.28 21.60 14.28 23.86L14.28 23.86L14.28 23.86Q14.28 25.19 14.85 26.07L14.85 26.07L14.85 26.07Q15.43 26.96 16.49 26.96L16.49 26.96L16.49 26.96Q18.07 26.96 18.07 24.70L18.07 24.70L18.07 24.70Q18.07 23.38 17.50 22.49L17.50 22.49L17.50 22.49Q16.93 21.60 15.86 21.60L15.86 21.60ZM25.55 27.44L25.27 28L21.36 28L21.36 27.57L22.61 26.59L22.61 17.98L21.36 17.11L21.36 16.67L23.76 15.78L24.29 15.78L24.29 26.95L25.55 27.44ZM31.23 20.43L31.23 20.43Q32.16 20.43 32.89 20.91L32.89 20.91L32.89 20.91Q33.63 21.39 34.04 22.22L34.04 22.22L34.04 22.22Q34.45 23.04 34.45 24.04L34.45 24.04L34.45 24.04Q34.45 25.12 33.80 26.06L33.80 26.06L33.80 26.06Q33.14 27.01 32.15 27.57L32.15 27.57L32.15 27.57Q31.16 28.14 30.24 28.14L30.24 28.14L30.24 28.14Q29.32 28.14 28.58 27.66L28.58 27.66L28.58 27.66Q27.85 27.17 27.43 26.35L27.43 26.35L27.43 26.35Q27.02 25.52 27.02 24.53L27.02 24.53L27.02 24.53Q27.02 23.45 27.68 22.50L27.68 22.50L27.68 22.50Q28.34 21.56 29.32 20.99L29.32 20.99L29.32 20.99Q30.31 20.43 31.23 20.43L31.23 20.43ZM30.42 21.60L30.42 21.60Q28.84 21.60 28.84 23.86L28.84 23.86L28.84 23.86Q28.84 25.19 29.41 26.07L29.41 26.07L29.41 26.07Q29.99 26.96 31.05 26.96L31.05 26.96L31.05 26.96Q32.63 26.96 32.63 24.70L32.63 24.70L32.63 24.70Q32.63 23.38 32.06 22.49L32.06 22.49L32.06 22.49Q31.49 21.60 30.42 21.60L30.42 21.60ZM41.26 20.44L41.26 20.44Q41.72 20.44 42.07 20.69L42.07 20.69L42.07 20.69Q42.42 20.94 42.62 21.39L42.62 21.39L41.69 22.55L41.16 22.55L41.16 22.55Q41.10 22.20 40.96 22.06L40.96 22.06L40.96 22.06Q40.81 21.91 40.56 21.91L40.56 21.91L40.56 21.91Q40.25 21.91 39.91 22.07L39.91 22.07L39.91 22.07Q39.56 22.23 39.13 22.68L39.13 22.68L39.13 26.85L41.09 27.45L40.81 28.01L36.20 28.01L36.20 27.58L37.45 26.60L37.45 22.64L36.20 21.91L36.20 21.48L38.60 20.30L39.03 22.02L40.49 20.54L40.49 20.54Q40.78 20.43 41.26 20.43L41.26 20.43L41.26 20.44ZM50.90 27.44L50.62 28L47.96 28L47.96 26.78L46.38 28.03L46.38 28.03Q46.10 28.14 45.68 28.14L45.68 28.14L45.68 28.14Q44.48 28.14 43.94 27.54L43.94 27.54L43.94 27.54Q43.40 26.94 43.40 26.10L43.40 26.10L43.40 26.10Q43.40 25.59 43.76 25.10L43.76 25.10L43.76 25.10Q44.13 24.61 44.80 24.18L44.80 24.18L47.96 24.18L47.96 23.28L47.96 23.28Q47.96 22.37 47.48 21.99L47.48 21.99L47.48 21.99Q47.00 21.62 46.16 21.62L46.16 21.62L46.16 21.62Q45.29 21.62 44.03 22.67L44.03 22.67L43.61 22.13L45.63 20.54L45.63 20.54Q46.19 20.43 46.97 20.43L46.97 20.43L46.97 20.43Q48.24 20.43 48.94 21.05L48.94 21.05L48.94 21.05Q49.64 21.67 49.64 22.86L49.64 22.86L49.64 26.95L50.90 27.44ZM46.13 26.95L46.13 26.95Q46.98 26.95 47.96 26.17L47.96 26.17L47.96 24.75L45.49 24.75L45.49 24.75Q45.30 24.98 45.23 25.20L45.23 25.20L45.23 25.20Q45.15 25.42 45.15 25.69L45.15 25.69L45.15 25.69Q45.15 26.21 45.42 26.58L45.42 26.58L45.42 26.58Q45.68 26.95 46.13 26.95L46.13 26.95ZM60.76 27.44L60.48 28L57.82 28L57.82 26.99L56.52 28.03L56.52 28.03Q56.07 28.14 55.44 28.14L55.44 28.14L55.44 28.14Q54.52 28.14 53.78 27.66L53.78 27.66L53.78 27.66Q53.05 27.17 52.63 26.35L52.63 26.35L52.63 26.35Q52.22 25.52 52.22 24.53L52.22 24.53L52.22 24.53Q52.22 23.45 52.88 22.50L52.88 22.50L52.88 22.50Q53.54 21.56 54.52 20.99L54.52 20.99L54.52 20.99Q55.51 20.43 56.43 20.43L56.43 20.43L56.43 20.43Q57.20 20.43 57.83 20.86L57.83 20.86L57.83 17.98L56.59 17.11L56.59 16.67L58.98 15.78L59.51 15.78L59.51 26.95L60.76 27.44ZM56.15 26.95L56.15 26.95Q56.57 26.95 56.96 26.83L56.96 26.83L56.96 26.83Q57.34 26.71 57.82 26.38L57.82 26.38L57.82 23.18L57.82 23.18Q57.74 22.48 57.17 22.04L57.17 22.04L57.17 22.04Q56.60 21.60 55.62 21.60L55.62 21.60L55.62 21.60Q54.04 21.60 54.04 23.86L54.04 23.86L54.04 23.86Q54.04 25.17 54.59 26.06L54.59 26.06L54.59 26.06Q55.13 26.95 56.15 26.95L56.15 26.95ZM66.32 20.43L66.32 20.43Q67.24 20.43 67.98 20.91L67.98 20.91L67.98 20.91Q68.71 21.39 69.13 22.22L69.13 22.22L69.13 22.22Q69.54 23.04 69.54 24.04L69.54 24.04L69.54 24.04Q69.54 25.12 68.88 26.06L68.88 26.06L68.88 26.06Q68.22 27.01 67.24 27.57L67.24 27.57L67.24 27.57Q66.25 28.14 65.32 28.14L65.32 28.14L65.32 28.14Q64.40 28.14 63.67 27.66L63.67 27.66L63.67 27.66Q62.93 27.17 62.52 26.35L62.52 26.35L62.52 26.35Q62.10 25.52 62.10 24.53L62.10 24.53L62.10 24.53Q62.10 23.45 62.76 22.50L62.76 22.50L62.76 22.50Q63.42 21.56 64.41 20.99L64.41 20.99L64.41 20.99Q65.39 20.43 66.32 20.43L66.32 20.43ZM65.51 21.60L65.51 21.60Q63.92 21.60 63.92 23.86L63.92 23.86L63.92 23.86Q63.92 25.19 64.50 26.07L64.50 26.07L64.50 26.07Q65.07 26.96 66.14 26.96L66.14 26.96L66.14 26.96Q67.72 26.96 67.72 24.70L67.72 24.70L67.72 24.70Q67.72 23.38 67.14 22.49L67.14 22.49L67.14 22.49Q66.57 21.60 65.51 21.60L65.51 21.60ZM87.08 27.44L86.80 28L82.54 28L82.54 27.57L83.86 26.53L83.86 22.83L78.33 22.83L78.33 26.94L79.80 27.44L79.52 28L75.26 28L75.26 27.57L76.58 26.53L76.58 18.05L75.12 17.56L75.40 17.00L79.66 17.00L79.66 17.43L78.33 18.47L78.33 22.20L83.86 22.20L83.86 18.05L82.40 17.56L82.68 17.00L86.94 17.00L86.94 17.43L85.61 18.47L85.61 26.94L87.08 27.44ZM92.97 20.43L92.97 20.43Q93.90 20.43 94.63 20.91L94.63 20.91L94.63 20.91Q95.37 21.39 95.78 22.22L95.78 22.22L95.78 22.22Q96.19 23.04 96.19 24.04L96.19 24.04L96.19 24.04Q96.19 25.12 95.54 26.06L95.54 26.06L95.54 26.06Q94.88 27.01 93.89 27.57L93.89 27.57L93.89 27.57Q92.90 28.14 91.98 28.14L91.98 28.14L91.98 28.14Q91.06 28.14 90.32 27.66L90.32 27.66L90.32 27.66Q89.59 27.17 89.17 26.35L89.17 26.35L89.17 26.35Q88.76 25.52 88.76 24.53L88.76 24.53L88.76 24.53Q88.76 23.45 89.42 22.50L89.42 22.50L89.42 22.50Q90.08 21.56 91.06 20.99L91.06 20.99L91.06 20.99Q92.05 20.43 92.97 20.43L92.97 20.43ZM92.16 21.60L92.16 21.60Q90.58 21.60 90.58 23.86L90.58 23.86L90.58 23.86Q90.58 25.19 91.15 26.07L91.15 26.07L91.15 26.07Q91.73 26.96 92.79 26.96L92.79 26.96L92.79 26.96Q94.37 26.96 94.37 24.70L94.37 24.70L94.37 24.70Q94.37 23.38 93.80 22.49L93.80 22.49L93.80 22.49Q93.23 21.60 92.16 21.60L92.16 21.60ZM103.00 20.44L103.00 20.44Q103.46 20.44 103.81 20.69L103.81 20.69L103.81 20.69Q104.16 20.94 104.36 21.39L104.36 21.39L103.43 22.55L102.90 22.55L102.90 22.55Q102.84 22.20 102.70 22.06L102.70 22.06L102.70 22.06Q102.55 21.91 102.30 21.91L102.30 21.91L102.30 21.91Q101.99 21.91 101.65 22.07L101.65 22.07L101.65 22.07Q101.30 22.23 100.87 22.68L100.87 22.68L100.87 26.85L102.83 27.45L102.55 28.01L97.94 28.01L97.94 27.58L99.19 26.60L99.19 22.64L97.94 21.91L97.94 21.48L100.34 20.30L100.77 22.02L102.23 20.54L102.23 20.54Q102.52 20.43 103.00 20.43L103.00 20.43L103.00 20.44ZM109.40 27.44L109.12 28L105.21 28L105.21 27.57L106.46 26.59L106.46 22.50L105.21 21.63L105.21 21.20L107.60 20.30L108.14 20.30L108.14 26.95L109.40 27.44ZM107.24 16.10L107.24 16.10Q107.66 16.10 107.93 16.41L107.93 16.41L107.93 16.41Q108.21 16.72 108.21 17.18L108.21 17.18L108.21 17.18Q108.21 17.50 108.01 17.79L108.01 17.79L108.01 17.79Q107.81 18.07 107.52 18.24L107.52 18.24L107.52 18.24Q107.23 18.41 106.95 18.41L106.95 18.41L106.95 18.41Q106.53 18.41 106.25 18.10L106.25 18.10L106.25 18.10Q105.98 17.79 105.98 17.33L105.98 17.33L105.98 17.33Q105.98 17.01 106.18 16.72L106.18 16.72L106.18 16.72Q106.37 16.44 106.67 16.27L106.67 16.27L106.67 16.27Q106.96 16.10 107.24 16.10L107.24 16.10ZM112.78 26.32L116.26 26.32L116.86 25.17L117.28 25.31L117.28 28.25L116.51 28L110.87 28L110.87 27.47L115.57 22.25L112.03 22.25L111.47 23.25L111.05 23.11L111.05 20.31L111.82 20.57L117.46 20.57L117.46 21.10L112.78 26.32ZM123.63 20.43L123.63 20.43Q124.56 20.43 125.29 20.91L125.29 20.91L125.29 20.91Q126.03 21.39 126.44 22.22L126.44 22.22L126.44 22.22Q126.85 23.04 126.85 24.04L126.85 24.04L126.85 24.04Q126.85 25.12 126.20 26.06L126.20 26.06L126.20 26.06Q125.54 27.01 124.55 27.57L124.55 27.57L124.55 27.57Q123.56 28.14 122.64 28.14L122.64 28.14L122.64 28.14Q121.72 28.14 120.98 27.66L120.98 27.66L120.98 27.66Q120.25 27.17 119.83 26.35L119.83 26.35L119.83 26.35Q119.42 25.52 119.42 24.53L119.42 24.53L119.42 24.53Q119.42 23.45 120.08 22.50L120.08 22.50L120.08 22.50Q120.74 21.56 121.72 20.99L121.72 20.99L121.72 20.99Q122.71 20.43 123.63 20.43L123.63 20.43ZM122.82 21.60L122.82 21.60Q121.24 21.60 121.24 23.86L121.24 23.86L121.24 23.86Q121.24 25.19 121.81 26.07L121.81 26.07L121.81 26.07Q122.39 26.96 123.45 26.96L123.45 26.96L123.45 26.96Q125.03 26.96 125.03 24.70L125.03 24.70L125.03 24.70Q125.03 23.38 124.46 22.49L124.46 22.49L124.46 22.49Q123.89 21.60 122.82 21.60L122.82 21.60ZM137.55 27.45L137.27 28.01L134.61 28.01L134.61 23.30L134.61 23.30Q134.61 22.53 134.37 22.22L134.37 22.22L134.37 22.22Q134.13 21.91 133.52 21.91L133.52 21.91L133.52 21.91Q133.06 21.91 132.60 22.08L132.60 22.08L132.60 22.08Q132.15 22.25 131.53 22.72L131.53 22.72L131.53 26.96L132.79 27.45L132.51 28.01L128.60 28.01L128.60 27.58L129.85 26.60L129.85 22.64L128.60 21.91L128.60 21.48L131.00 20.30L131.46 22.12L133.45 20.54L133.45 20.54Q133.74 20.43 134.22 20.43L134.22 20.43L134.22 20.43Q135.17 20.43 135.73 21.01L135.73 21.01L135.73 21.01Q136.29 21.59 136.29 22.58L136.29 22.58L136.29 26.95L137.55 27.45Z"></path></g><!----><g data-v-423bf9ae="" id="4a72a02d-54ba-4784-9898-838d65f4e95d" transform="matrix(1.0868111504448785,0,0,1.0868111504448785,272.744749553976,-0.23894260335429607)" stroke="none" fill="black"><g clip-rule="evenodd"><path d="M12.983 10.59l17.018 88.223-5.872-59.049 29.021-1.892-.054-9.883L64.549 1 53.622 18.977z"></path><path d="M59.389 54.548l5.16-53.541-8.74 39.716-19.612 1.045 1.57 20.462-7.766 36.583 12.057-39.899z"></path><path d="M62.8 67.182l.549-10.453-15.979 3.755-.032 11.797-17.337 26.532 21.68-27.616zM65.711 62.394l14.841-4.731 1.509-12.532-15.899 2.095zM72.07 44.502l10.988-1.417 1.581-10.278-8.079-.373L64.549 1l8.43 30.967z"></path><path d="M87.413 31.294l1.256-9.506-9.544-2.694L64.549 1l14.483 22.437-.422 7z"></path></g></g><!----></svg>